<?xml version="1.0" encoding="UTF-8" standalone="no"?>
<svg
   xmlns:dc="http://purl.org/dc/elements/1.1/"
   xmlns:cc="http://creativecommons.org/ns#"
   xmlns:rdf="http://www.w3.org/1999/02/22-rdf-syntax-ns#"
   xmlns:svg="http://www.w3.org/2000/svg"
   xmlns="http://www.w3.org/2000/svg"
   xmlns:sodipodi="http://sodipodi.sourceforge.net/DTD/sodipodi-0.dtd"
   xmlns:inkscape="http://www.inkscape.org/namespaces/inkscape"
   version="1.1"
   id="svg2"
   xml:space="preserve"
   width="1418.6667"
   height="122.66667"
   viewBox="0 0 1418.6667 122.66667"
   sodipodi:docname="problematic-4.eps"><metadata
     id="metadata8"><rdf:RDF><cc:Work
         rdf:about=""><dc:format>image/svg+xml</dc:format><dc:type
           rdf:resource="http://purl.org/dc/dcmitype/StillImage" /></cc:Work></rdf:RDF></metadata><defs
     id="defs6" /><sodipodi:namedview
     pagecolor="#ffffff"
     bordercolor="#666666"
     borderopacity="1"
     objecttolerance="10"
     gridtolerance="10"
     guidetolerance="10"
     inkscape:pageopacity="0"
     inkscape:pageshadow="2"
     inkscape:window-width="640"
     inkscape:window-height="480"
     id="namedview4" /><g
     id="g10"
     inkscape:groupmode="layer"
     inkscape:label="ink_ext_XXXXXX"
     transform="matrix(1.3333333,0,0,-1.3333333,0,122.66667)"><g
       id="g12"
       transform="scale(0.1)"><g
         id="g14"
         transform="scale(10)"><text
           transform="matrix(1,0,0,-1,0.398047,0.616016)"
           style="font-variant:normal;font-weight:normal;font-size:9px;font-family:SegoeUI;-inkscape-font-specification:SegoeUI;writing-mode:lr-tb;fill:#000000;fill-opacity:1;fill-rule:nonzero;stroke:none"
           id="text18"><tspan
             x="0 29.997089 60.003181 90.000267 119.99772 149.99481 180.0009 209.99799 239.9959 269.99298 299.99908 304.85007 329.99597 334.84698 359.99207 364.84308 389.98898 394.84 419.9859 424.83691 449.99182 454.8428 479.98871 484.83972 509.98645 514.83746 539.98334 544.83435 569.98029 574.83124 599.98615 604.83716 629.98309 634.83411 659.98077 664.83179 689.97772 694.82874 719.97461 724.82562 749.98053 754.83154 779.97742 784.82843 809.97552 814.82654 839.97241 844.82343 869.96936 874.82031 899.97522 904.82623 929.97217 934.82318 959.96991 964.82086 989.9668 994.81781 1019.9637 1024.8147 1049.9696 1054.8206"
             y="0"
             sodipodi:role="line"
             id="tspan16">01234567891011121314151617181920212223242526272829303132333435</tspan></text></g><path
         d="M 3.98047,133.672 H 131.48"
         style="fill:none;stroke:#0000ff;stroke-width:22.5;stroke-linecap:butt;stroke-linejoin:miter;stroke-miterlimit:4;stroke-dasharray:none;stroke-opacity:1"
         id="path20" /><path
         d="M 3.98047,133.672 C -5.62109,317.109 283.789,465.82 650.352,465.82 c 366.598,0 671.528,-148.711 681.128,-332.148"
         style="fill:none;stroke:#0000ff;stroke-width:7.5;stroke-linecap:butt;stroke-linejoin:miter;stroke-miterlimit:4;stroke-dasharray:none;stroke-opacity:1"
         id="path22" /><path
         d="m 1203.98,133.672 h 127.5"
         style="fill:none;stroke:#0000ff;stroke-width:22.5;stroke-linecap:butt;stroke-linejoin:miter;stroke-miterlimit:4;stroke-dasharray:none;stroke-opacity:1"
         id="path24" /><path
         d="m 1203.98,133.672 c 0,65.238 -105.78,118.129 -236.25,118.129 -130.46,0 -236.25,-52.891 -236.25,-118.129"
         style="fill:none;stroke:#0000ff;stroke-width:7.5;stroke-linecap:butt;stroke-linejoin:miter;stroke-miterlimit:4;stroke-dasharray:none;stroke-opacity:1"
         id="path26" /><path
         d="m 603.98,133.672 h 127.5"
         style="fill:none;stroke:#0000ff;stroke-width:22.5;stroke-linecap:butt;stroke-linejoin:miter;stroke-miterlimit:4;stroke-dasharray:none;stroke-opacity:1"
         id="path28" /><path
         d="m 603.98,133.672 c 0,65.238 -105.781,118.129 -236.25,118.129 -130.46,0 -236.25,-52.891 -236.25,-118.129"
         style="fill:none;stroke:#0000ff;stroke-width:7.5;stroke-linecap:butt;stroke-linejoin:miter;stroke-miterlimit:4;stroke-dasharray:none;stroke-opacity:1"
         id="path30" /><path
         d="m 303.98,133.672 h 127.5"
         style="fill:none;stroke:#ff6347;stroke-width:22.5;stroke-linecap:butt;stroke-linejoin:miter;stroke-miterlimit:4;stroke-dasharray:none;stroke-opacity:1"
         id="path32" /><path
         d="m 303.98,133.672 c -9.601,183.437 279.809,332.148 646.372,332.148 366.598,0 671.528,-148.711 681.128,-332.148"
         style="fill:none;stroke:#ff6347;stroke-width:7.5;stroke-linecap:butt;stroke-linejoin:miter;stroke-miterlimit:4;stroke-dasharray:none;stroke-opacity:1"
         id="path34" /><path
         d="m 1503.98,133.672 h 127.5"
         style="fill:none;stroke:#ff6347;stroke-width:22.5;stroke-linecap:butt;stroke-linejoin:miter;stroke-miterlimit:4;stroke-dasharray:none;stroke-opacity:1"
         id="path36" /><path
         d="m 1503.98,133.672 c 0,65.238 -105.78,118.129 -236.25,118.129 -130.46,0 -236.25,-52.891 -236.25,-118.129"
         style="fill:none;stroke:#ff6347;stroke-width:7.5;stroke-linecap:butt;stroke-linejoin:miter;stroke-miterlimit:4;stroke-dasharray:none;stroke-opacity:1"
         id="path38" /><path
         d="m 903.98,133.672 h 127.5"
         style="fill:none;stroke:#ff6347;stroke-width:22.5;stroke-linecap:butt;stroke-linejoin:miter;stroke-miterlimit:4;stroke-dasharray:none;stroke-opacity:1"
         id="path40" /><path
         d="m 903.98,133.672 c 0,65.238 -105.781,118.129 -236.25,118.129 -130.46,0 -236.25,-52.891 -236.25,-118.129"
         style="fill:none;stroke:#ff6347;stroke-width:7.5;stroke-linecap:butt;stroke-linejoin:miter;stroke-miterlimit:4;stroke-dasharray:none;stroke-opacity:1"
         id="path42" /><path
         d="m 1803.98,133.672 h 127.5"
         style="fill:none;stroke:#a52a2a;stroke-width:22.5;stroke-linecap:butt;stroke-linejoin:miter;stroke-miterlimit:4;stroke-dasharray:none;stroke-opacity:1"
         id="path44" /><path
         d="m 1803.98,133.672 c -9.57,183.437 279.81,332.148 646.37,332.148 366.56,0 671.49,-148.711 681.13,-332.148"
         style="fill:none;stroke:#a52a2a;stroke-width:7.5;stroke-linecap:butt;stroke-linejoin:miter;stroke-miterlimit:4;stroke-dasharray:none;stroke-opacity:1"
         id="path46" /><path
         d="m 3003.98,133.672 h 127.5"
         style="fill:none;stroke:#a52a2a;stroke-width:22.5;stroke-linecap:butt;stroke-linejoin:miter;stroke-miterlimit:4;stroke-dasharray:none;stroke-opacity:1"
         id="path48" /><path
         d="m 3003.98,133.672 c 0,65.238 -105.78,118.129 -236.25,118.129 -130.46,0 -236.25,-52.891 -236.25,-118.129"
         style="fill:none;stroke:#a52a2a;stroke-width:7.5;stroke-linecap:butt;stroke-linejoin:miter;stroke-miterlimit:4;stroke-dasharray:none;stroke-opacity:1"
         id="path50" /><path
         d="m 2403.98,133.672 h 127.5"
         style="fill:none;stroke:#a52a2a;stroke-width:22.5;stroke-linecap:butt;stroke-linejoin:miter;stroke-miterlimit:4;stroke-dasharray:none;stroke-opacity:1"
         id="path52" /><path
         d="m 2403.98,133.672 c 0,65.238 -105.78,118.129 -236.25,118.129 -130.46,0 -236.25,-52.891 -236.25,-118.129"
         style="fill:none;stroke:#a52a2a;stroke-width:7.5;stroke-linecap:butt;stroke-linejoin:miter;stroke-miterlimit:4;stroke-dasharray:none;stroke-opacity:1"
         id="path54" /><path
         d="m 2103.98,133.672 h 127.5"
         style="fill:none;stroke:#8a2be2;stroke-width:22.5;stroke-linecap:butt;stroke-linejoin:miter;stroke-miterlimit:4;stroke-dasharray:none;stroke-opacity:1"
         id="path56" /><path
         d="m 2103.98,133.672 c -9.57,183.437 279.81,332.148 646.37,332.148 366.56,0 671.49,-148.711 681.13,-332.148"
         style="fill:none;stroke:#8a2be2;stroke-width:7.5;stroke-linecap:butt;stroke-linejoin:miter;stroke-miterlimit:4;stroke-dasharray:none;stroke-opacity:1"
         id="path58" /><path
         d="m 3303.98,133.672 h 127.5"
         style="fill:none;stroke:#8a2be2;stroke-width:22.5;stroke-linecap:butt;stroke-linejoin:miter;stroke-miterlimit:4;stroke-dasharray:none;stroke-opacity:1"
         id="path60" /><path
         d="m 3303.98,133.672 c 0,65.238 -105.78,118.129 -236.25,118.129 -130.46,0 -236.25,-52.891 -236.25,-118.129"
         style="fill:none;stroke:#8a2be2;stroke-width:7.5;stroke-linecap:butt;stroke-linejoin:miter;stroke-miterlimit:4;stroke-dasharray:none;stroke-opacity:1"
         id="path62" /><path
         d="m 2703.98,133.672 h 127.5"
         style="fill:none;stroke:#8a2be2;stroke-width:22.5;stroke-linecap:butt;stroke-linejoin:miter;stroke-miterlimit:4;stroke-dasharray:none;stroke-opacity:1"
         id="path64" /><path
         d="m 2703.98,133.672 c 0,65.238 -105.78,118.129 -236.25,118.129 -130.46,0 -236.25,-52.891 -236.25,-118.129"
         style="fill:none;stroke:#8a2be2;stroke-width:7.5;stroke-linecap:butt;stroke-linejoin:miter;stroke-miterlimit:4;stroke-dasharray:none;stroke-opacity:1"
         id="path66" /><path
         d="m 3603.98,133.672 h 127.5"
         style="fill:none;stroke:#deb887;stroke-width:22.5;stroke-linecap:butt;stroke-linejoin:miter;stroke-miterlimit:4;stroke-dasharray:none;stroke-opacity:1"
         id="path68" /><path
         d="m 3603.98,133.672 c -9.57,183.437 279.81,332.148 646.37,332.148 366.56,0 671.49,-148.711 681.13,-332.148"
         style="fill:none;stroke:#deb887;stroke-width:7.5;stroke-linecap:butt;stroke-linejoin:miter;stroke-miterlimit:4;stroke-dasharray:none;stroke-opacity:1"
         id="path70" /><path
         d="m 4803.98,133.672 h 127.5"
         style="fill:none;stroke:#deb887;stroke-width:22.5;stroke-linecap:butt;stroke-linejoin:miter;stroke-miterlimit:4;stroke-dasharray:none;stroke-opacity:1"
         id="path72" /><path
         d="m 4803.98,133.672 c 0,65.238 -105.78,118.129 -236.25,118.129 -130.46,0 -236.25,-52.891 -236.25,-118.129"
         style="fill:none;stroke:#deb887;stroke-width:7.5;stroke-linecap:butt;stroke-linejoin:miter;stroke-miterlimit:4;stroke-dasharray:none;stroke-opacity:1"
         id="path74" /><path
         d="m 4203.98,133.672 h 127.5"
         style="fill:none;stroke:#deb887;stroke-width:22.5;stroke-linecap:butt;stroke-linejoin:miter;stroke-miterlimit:4;stroke-dasharray:none;stroke-opacity:1"
         id="path76" /><path
         d="m 4203.98,133.672 c 0,65.238 -105.78,118.129 -236.25,118.129 -130.46,0 -236.25,-52.891 -236.25,-118.129"
         style="fill:none;stroke:#deb887;stroke-width:7.5;stroke-linecap:butt;stroke-linejoin:miter;stroke-miterlimit:4;stroke-dasharray:none;stroke-opacity:1"
         id="path78" /><path
         d="m 3903.98,133.672 h 127.5"
         style="fill:none;stroke:#5f9ea0;stroke-width:22.5;stroke-linecap:butt;stroke-linejoin:miter;stroke-miterlimit:4;stroke-dasharray:none;stroke-opacity:1"
         id="path80" /><path
         d="m 3903.98,133.672 c -9.57,183.437 279.81,332.148 646.37,332.148 366.56,0 671.49,-148.711 681.13,-332.148"
         style="fill:none;stroke:#5f9ea0;stroke-width:7.5;stroke-linecap:butt;stroke-linejoin:miter;stroke-miterlimit:4;stroke-dasharray:none;stroke-opacity:1"
         id="path82" /><path
         d="m 5103.98,133.672 h 127.5"
         style="fill:none;stroke:#5f9ea0;stroke-width:22.5;stroke-linecap:butt;stroke-linejoin:miter;stroke-miterlimit:4;stroke-dasharray:none;stroke-opacity:1"
         id="path84" /><path
         d="m 5103.98,133.672 c 0,65.238 -105.78,118.129 -236.25,118.129 -130.46,0 -236.25,-52.891 -236.25,-118.129"
         style="fill:none;stroke:#5f9ea0;stroke-width:7.5;stroke-linecap:butt;stroke-linejoin:miter;stroke-miterlimit:4;stroke-dasharray:none;stroke-opacity:1"
         id="path86" /><path
         d="m 4503.98,133.672 h 127.5"
         style="fill:none;stroke:#5f9ea0;stroke-width:22.5;stroke-linecap:butt;stroke-linejoin:miter;stroke-miterlimit:4;stroke-dasharray:none;stroke-opacity:1"
         id="path88" /><path
         d="m 4503.98,133.672 c 0,65.238 -105.78,118.129 -236.25,118.129 -130.46,0 -236.25,-52.891 -236.25,-118.129"
         style="fill:none;stroke:#5f9ea0;stroke-width:7.5;stroke-linecap:butt;stroke-linejoin:miter;stroke-miterlimit:4;stroke-dasharray:none;stroke-opacity:1"
         id="path90" /><path
         d="m 5403.98,133.672 h 127.5"
         style="fill:none;stroke:#7fff00;stroke-width:22.5;stroke-linecap:butt;stroke-linejoin:miter;stroke-miterlimit:4;stroke-dasharray:none;stroke-opacity:1"
         id="path92" /><path
         d="m 5403.98,133.672 c -9.57,183.437 279.81,332.148 646.37,332.148 366.56,0 671.49,-148.711 681.13,-332.148"
         style="fill:none;stroke:#7fff00;stroke-width:7.5;stroke-linecap:butt;stroke-linejoin:miter;stroke-miterlimit:4;stroke-dasharray:none;stroke-opacity:1"
         id="path94" /><path
         d="m 6603.98,133.672 h 127.5"
         style="fill:none;stroke:#7fff00;stroke-width:22.5;stroke-linecap:butt;stroke-linejoin:miter;stroke-miterlimit:4;stroke-dasharray:none;stroke-opacity:1"
         id="path96" /><path
         d="m 6603.98,133.672 c 0,65.238 -105.78,118.129 -236.25,118.129 -130.46,0 -236.25,-52.891 -236.25,-118.129"
         style="fill:none;stroke:#7fff00;stroke-width:7.5;stroke-linecap:butt;stroke-linejoin:miter;stroke-miterlimit:4;stroke-dasharray:none;stroke-opacity:1"
         id="path98" /><path
         d="m 6003.98,133.672 h 127.5"
         style="fill:none;stroke:#7fff00;stroke-width:22.5;stroke-linecap:butt;stroke-linejoin:miter;stroke-miterlimit:4;stroke-dasharray:none;stroke-opacity:1"
         id="path100" /><path
         d="m 6003.98,133.672 c 0,65.238 -105.78,118.129 -236.25,118.129 -130.46,0 -236.25,-52.891 -236.25,-118.129"
         style="fill:none;stroke:#7fff00;stroke-width:7.5;stroke-linecap:butt;stroke-linejoin:miter;stroke-miterlimit:4;stroke-dasharray:none;stroke-opacity:1"
         id="path102" /><path
         d="m 5703.98,133.672 h 127.5"
         style="fill:none;stroke:#d2691e;stroke-width:22.5;stroke-linecap:butt;stroke-linejoin:miter;stroke-miterlimit:4;stroke-dasharray:none;stroke-opacity:1"
         id="path104" /><path
         d="m 5703.98,133.672 c -9.57,183.437 279.81,332.148 646.37,332.148 366.56,0 671.49,-148.711 681.13,-332.148"
         style="fill:none;stroke:#d2691e;stroke-width:7.5;stroke-linecap:butt;stroke-linejoin:miter;stroke-miterlimit:4;stroke-dasharray:none;stroke-opacity:1"
         id="path106" /><path
         d="m 6903.98,133.672 h 127.5"
         style="fill:none;stroke:#d2691e;stroke-width:22.5;stroke-linecap:butt;stroke-linejoin:miter;stroke-miterlimit:4;stroke-dasharray:none;stroke-opacity:1"
         id="path108" /><path
         d="m 6903.98,133.672 c 0,65.238 -105.78,118.129 -236.25,118.129 -130.46,0 -236.25,-52.891 -236.25,-118.129"
         style="fill:none;stroke:#d2691e;stroke-width:7.5;stroke-linecap:butt;stroke-linejoin:miter;stroke-miterlimit:4;stroke-dasharray:none;stroke-opacity:1"
         id="path110" /><path
         d="m 6303.98,133.672 h 127.5"
         style="fill:none;stroke:#d2691e;stroke-width:22.5;stroke-linecap:butt;stroke-linejoin:miter;stroke-miterlimit:4;stroke-dasharray:none;stroke-opacity:1"
         id="path112" /><path
         d="m 6303.98,133.672 c 0,65.238 -105.78,118.129 -236.25,118.129 -130.46,0 -236.25,-52.891 -236.25,-118.129"
         style="fill:none;stroke:#d2691e;stroke-width:7.5;stroke-linecap:butt;stroke-linejoin:miter;stroke-miterlimit:4;stroke-dasharray:none;stroke-opacity:1"
         id="path114" /><path
         d="m 7203.98,133.672 h 127.5"
         style="fill:none;stroke:#ff7f50;stroke-width:22.5;stroke-linecap:butt;stroke-linejoin:miter;stroke-miterlimit:4;stroke-dasharray:none;stroke-opacity:1"
         id="path116" /><path
         d="m 7203.98,133.672 c -22.61,432.187 659.18,782.578 1522.82,782.578 863.63,0 1582.1,-350.391 1604.7,-782.578"
         style="fill:none;stroke:#ff7f50;stroke-width:7.5;stroke-linecap:butt;stroke-linejoin:miter;stroke-miterlimit:4;stroke-dasharray:none;stroke-opacity:1"
         id="path118" /><path
         d="m 10204,133.672 h 127.5"
         style="fill:none;stroke:#ff7f50;stroke-width:22.5;stroke-linecap:butt;stroke-linejoin:miter;stroke-miterlimit:4;stroke-dasharray:none;stroke-opacity:1"
         id="path120" /><path
         d="m 10204,133.672 c 0,313.75 -508.73,568.129 -1136.27,568.129 -627.53,0 -1136.25,-254.379 -1136.25,-568.129"
         style="fill:none;stroke:#ff7f50;stroke-width:7.5;stroke-linecap:butt;stroke-linejoin:miter;stroke-miterlimit:4;stroke-dasharray:none;stroke-opacity:1"
         id="path122" /><path
         d="m 7803.98,133.672 h 127.5"
         style="fill:none;stroke:#ff7f50;stroke-width:22.5;stroke-linecap:butt;stroke-linejoin:miter;stroke-miterlimit:4;stroke-dasharray:none;stroke-opacity:1"
         id="path124" /><path
         d="m 7803.98,133.672 c 0,65.238 -105.78,118.129 -236.25,118.129 -130.46,0 -236.25,-52.891 -236.25,-118.129"
         style="fill:none;stroke:#ff7f50;stroke-width:7.5;stroke-linecap:butt;stroke-linejoin:miter;stroke-miterlimit:4;stroke-dasharray:none;stroke-opacity:1"
         id="path126" /><path
         d="m 7503.98,133.672 h 127.5"
         style="fill:none;stroke:#6495ed;stroke-width:22.5;stroke-linecap:butt;stroke-linejoin:miter;stroke-miterlimit:4;stroke-dasharray:none;stroke-opacity:1"
         id="path128" /><path
         d="m 7503.98,133.672 c -22.46,432.148 659.3,782.457 1522.82,782.457 863.55,0 1582,-350.309 1604.7,-782.457"
         style="fill:none;stroke:#6495ed;stroke-width:7.5;stroke-linecap:butt;stroke-linejoin:miter;stroke-miterlimit:4;stroke-dasharray:none;stroke-opacity:1"
         id="path130" /><path
         d="m 10504,133.672 h 127.5"
         style="fill:none;stroke:#6495ed;stroke-width:22.5;stroke-linecap:butt;stroke-linejoin:miter;stroke-miterlimit:4;stroke-dasharray:none;stroke-opacity:1"
         id="path132" /><path
         d="m 10504,133.672 c 0,65.238 -105.8,118.129 -236.3,118.129 -130.4,0 -236.2,-52.891 -236.2,-118.129"
         style="fill:none;stroke:#6495ed;stroke-width:7.5;stroke-linecap:butt;stroke-linejoin:miter;stroke-miterlimit:4;stroke-dasharray:none;stroke-opacity:1"
         id="path134" /><path
         d="m 9903.98,133.672 h 127.52"
         style="fill:none;stroke:#6495ed;stroke-width:22.5;stroke-linecap:butt;stroke-linejoin:miter;stroke-miterlimit:4;stroke-dasharray:none;stroke-opacity:1"
         id="path136" /><path
         d="m 9903.98,133.672 c 0,313.75 -508.71,568.129 -1136.25,568.129 -627.53,0 -1136.25,-254.379 -1136.25,-568.129"
         style="fill:none;stroke:#6495ed;stroke-width:7.5;stroke-linecap:butt;stroke-linejoin:miter;stroke-miterlimit:4;stroke-dasharray:none;stroke-opacity:1"
         id="path138" /><path
         d="m 8103.98,133.672 h 127.5"
         style="fill:none;stroke:#dc143c;stroke-width:22.5;stroke-linecap:butt;stroke-linejoin:miter;stroke-miterlimit:4;stroke-dasharray:none;stroke-opacity:1"
         id="path140" /><path
         d="m 8103.98,133.672 c -9.57,183.437 279.81,332.148 646.37,332.148 366.56,0 671.49,-148.711 681.13,-332.148"
         style="fill:none;stroke:#dc143c;stroke-width:7.5;stroke-linecap:butt;stroke-linejoin:miter;stroke-miterlimit:4;stroke-dasharray:none;stroke-opacity:1"
         id="path142" /><path
         d="m 9303.98,133.672 h 127.5"
         style="fill:none;stroke:#dc143c;stroke-width:22.5;stroke-linecap:butt;stroke-linejoin:miter;stroke-miterlimit:4;stroke-dasharray:none;stroke-opacity:1"
         id="path144" /><path
         d="m 9303.98,133.672 c 0,65.238 -105.78,118.129 -236.25,118.129 -130.46,0 -236.25,-52.891 -236.25,-118.129"
         style="fill:none;stroke:#dc143c;stroke-width:7.5;stroke-linecap:butt;stroke-linejoin:miter;stroke-miterlimit:4;stroke-dasharray:none;stroke-opacity:1"
         id="path146" /><path
         d="m 8703.98,133.672 h 127.5"
         style="fill:none;stroke:#dc143c;stroke-width:22.5;stroke-linecap:butt;stroke-linejoin:miter;stroke-miterlimit:4;stroke-dasharray:none;stroke-opacity:1"
         id="path148" /><path
         d="m 8703.98,133.672 c 0,65.238 -105.78,118.129 -236.25,118.129 -130.46,0 -236.25,-52.891 -236.25,-118.129"
         style="fill:none;stroke:#dc143c;stroke-width:7.5;stroke-linecap:butt;stroke-linejoin:miter;stroke-miterlimit:4;stroke-dasharray:none;stroke-opacity:1"
         id="path150" /><path
         d="m 8403.98,133.672 h 127.5"
         style="fill:none;stroke:#00ffff;stroke-width:22.5;stroke-linecap:butt;stroke-linejoin:miter;stroke-miterlimit:4;stroke-dasharray:none;stroke-opacity:1"
         id="path152" /><path
         d="m 8403.98,133.672 c -9.57,183.437 279.81,332.148 646.37,332.148 366.56,0 671.49,-148.711 681.13,-332.148"
         style="fill:none;stroke:#00ffff;stroke-width:7.5;stroke-linecap:butt;stroke-linejoin:miter;stroke-miterlimit:4;stroke-dasharray:none;stroke-opacity:1"
         id="path154" /><path
         d="m 9603.98,133.672 h 127.5"
         style="fill:none;stroke:#00ffff;stroke-width:22.5;stroke-linecap:butt;stroke-linejoin:miter;stroke-miterlimit:4;stroke-dasharray:none;stroke-opacity:1"
         id="path156" /><path
         d="m 9603.98,133.672 c 0,65.238 -105.78,118.129 -236.25,118.129 -130.46,0 -236.25,-52.891 -236.25,-118.129"
         style="fill:none;stroke:#00ffff;stroke-width:7.5;stroke-linecap:butt;stroke-linejoin:miter;stroke-miterlimit:4;stroke-dasharray:none;stroke-opacity:1"
         id="path158" /><path
         d="m 9003.98,133.672 h 127.5"
         style="fill:none;stroke:#00ffff;stroke-width:22.5;stroke-linecap:butt;stroke-linejoin:miter;stroke-miterlimit:4;stroke-dasharray:none;stroke-opacity:1"
         id="path160" /><path
         d="m 9003.98,133.672 c 0,65.238 -105.78,118.129 -236.25,118.129 -130.46,0 -236.25,-52.891 -236.25,-118.129"
         style="fill:none;stroke:#00ffff;stroke-width:7.5;stroke-linecap:butt;stroke-linejoin:miter;stroke-miterlimit:4;stroke-dasharray:none;stroke-opacity:1"
         id="path162" /></g></g></svg>
