<?xml version="1.0" encoding="UTF-8" standalone="no"?>
<svg
   xmlns:dc="http://purl.org/dc/elements/1.1/"
   xmlns:cc="http://creativecommons.org/ns#"
   xmlns:rdf="http://www.w3.org/1999/02/22-rdf-syntax-ns#"
   xmlns:svg="http://www.w3.org/2000/svg"
   xmlns="http://www.w3.org/2000/svg"
   xmlns:sodipodi="http://sodipodi.sourceforge.net/DTD/sodipodi-0.dtd"
   xmlns:inkscape="http://www.inkscape.org/namespaces/inkscape"
   version="1.1"
   id="svg2"
   xml:space="preserve"
   width="1418.6667"
   height="242.66667"
   viewBox="0 0 1418.6667 242.66667"
   sodipodi:docname="problematic-2.eps"><metadata
     id="metadata8"><rdf:RDF><cc:Work
         rdf:about=""><dc:format>image/svg+xml</dc:format><dc:type
           rdf:resource="http://purl.org/dc/dcmitype/StillImage" /></cc:Work></rdf:RDF></metadata><defs
     id="defs6" /><sodipodi:namedview
     pagecolor="#ffffff"
     bordercolor="#666666"
     borderopacity="1"
     objecttolerance="10"
     gridtolerance="10"
     guidetolerance="10"
     inkscape:pageopacity="0"
     inkscape:pageshadow="2"
     inkscape:window-width="640"
     inkscape:window-height="480"
     id="namedview4" /><g
     id="g10"
     inkscape:groupmode="layer"
     inkscape:label="ink_ext_XXXXXX"
     transform="matrix(1.3333333,0,0,-1.3333333,0,242.66667)"><g
       id="g12"
       transform="scale(0.1)"><g
         id="g14"
         transform="scale(10)"><text
           transform="matrix(1,0,0,-1,0.398047,0.533984)"
           style="font-variant:normal;font-weight:normal;font-size:9px;font-family:SegoeUI;-inkscape-font-specification:SegoeUI;writing-mode:lr-tb;fill:#000000;fill-opacity:1;fill-rule:nonzero;stroke:none"
           id="text18"><tspan
             x="0 29.997089 60.003181 90.000267 119.99772 149.99481 180.0009 209.99799 239.9959 269.99298 299.99908 304.85007 329.99597 334.84698 359.99207 364.84308 389.98898 394.84 419.9859 424.83691 449.99182 454.8428 479.98871 484.83972 509.98645 514.83746 539.98334 544.83435 569.98029 574.83124 599.98615 604.83716 629.98309 634.83411 659.98077 664.83179 689.97772 694.82874 719.97461 724.82562 749.98053 754.83154 779.97742 784.82843 809.97552 814.82654 839.97241 844.82343 869.96936 874.82031 899.97522 904.82623 929.97217 934.82318 959.96991 964.82086 989.9668 994.81781 1019.9637 1024.8147 1049.9696 1054.8206"
             y="0"
             sodipodi:role="line"
             id="tspan16">01234567891011121314151617181920212223242526272829303132333435</tspan></text></g><path
         d="m 10504,132.852 h 127.5"
         style="fill:none;stroke:#0000ff;stroke-width:22.5;stroke-linecap:butt;stroke-linejoin:miter;stroke-miterlimit:4;stroke-dasharray:none;stroke-opacity:1"
         id="path20" /><path
         d="m 10504,132.852 c 0,65.238 -105.8,118.128 -236.3,118.128 -130.4,0 -236.2,-52.89 -236.2,-118.128"
         style="fill:none;stroke:#0000ff;stroke-width:7.5;stroke-linecap:butt;stroke-linejoin:miter;stroke-miterlimit:4;stroke-dasharray:none;stroke-opacity:1"
         id="path22" /><path
         d="m 9903.98,132.852 h 127.52"
         style="fill:none;stroke:#0000ff;stroke-width:22.5;stroke-linecap:butt;stroke-linejoin:miter;stroke-miterlimit:4;stroke-dasharray:none;stroke-opacity:1"
         id="path24" /><path
         d="m 9903.98,132.852 c 0,562.269 -911.68,1018.128 -2036.25,1018.128 -1124.61,0 -2036.25,-455.859 -2036.25,-1018.128"
         style="fill:none;stroke:#0000ff;stroke-width:7.5;stroke-linecap:butt;stroke-linejoin:miter;stroke-miterlimit:4;stroke-dasharray:none;stroke-opacity:1"
         id="path26" /><path
         d="m 5703.98,132.852 h 127.5"
         style="fill:none;stroke:#0000ff;stroke-width:22.5;stroke-linecap:butt;stroke-linejoin:miter;stroke-miterlimit:4;stroke-dasharray:none;stroke-opacity:1"
         id="path28" /><path
         d="m 5703.98,132.852 c -35.62,680.937 1038.56,1232.968 2399.26,1232.968 1360.71,0 2492.66,-552.031 2528.26,-1232.968"
         style="fill:none;stroke:#0000ff;stroke-width:7.5;stroke-linecap:butt;stroke-linejoin:miter;stroke-miterlimit:4;stroke-dasharray:none;stroke-opacity:1"
         id="path30" /><path
         d="M 3.98047,132.852 H 131.48"
         style="fill:none;stroke:#ff6347;stroke-width:22.5;stroke-linecap:butt;stroke-linejoin:miter;stroke-miterlimit:4;stroke-dasharray:none;stroke-opacity:1"
         id="path32" /><path
         d="M 3.98047,132.852 C -5.62109,316.289 283.789,465 650.352,465 1016.95,465 1321.88,316.289 1331.48,132.852"
         style="fill:none;stroke:#ff6347;stroke-width:7.5;stroke-linecap:butt;stroke-linejoin:miter;stroke-miterlimit:4;stroke-dasharray:none;stroke-opacity:1"
         id="path34" /><path
         d="m 1203.98,132.852 h 127.5"
         style="fill:none;stroke:#ff6347;stroke-width:22.5;stroke-linecap:butt;stroke-linejoin:miter;stroke-miterlimit:4;stroke-dasharray:none;stroke-opacity:1"
         id="path36" /><path
         d="m 1203.98,132.852 c 0,65.238 -105.78,118.128 -236.25,118.128 -130.46,0 -236.25,-52.89 -236.25,-118.128"
         style="fill:none;stroke:#ff6347;stroke-width:7.5;stroke-linecap:butt;stroke-linejoin:miter;stroke-miterlimit:4;stroke-dasharray:none;stroke-opacity:1"
         id="path38" /><path
         d="m 603.98,132.852 h 127.5"
         style="fill:none;stroke:#ff6347;stroke-width:22.5;stroke-linecap:butt;stroke-linejoin:miter;stroke-miterlimit:4;stroke-dasharray:none;stroke-opacity:1"
         id="path40" /><path
         d="m 603.98,132.852 c 0,65.238 -105.781,118.128 -236.25,118.128 -130.46,0 -236.25,-52.89 -236.25,-118.128"
         style="fill:none;stroke:#ff6347;stroke-width:7.5;stroke-linecap:butt;stroke-linejoin:miter;stroke-miterlimit:4;stroke-dasharray:none;stroke-opacity:1"
         id="path42" /><path
         d="m 303.98,132.852 h 127.5"
         style="fill:none;stroke:#a52a2a;stroke-width:22.5;stroke-linecap:butt;stroke-linejoin:miter;stroke-miterlimit:4;stroke-dasharray:none;stroke-opacity:1"
         id="path44" /><path
         d="M 303.98,132.852 C 294.379,316.289 583.789,465 950.352,465 1316.95,465 1621.88,316.289 1631.48,132.852"
         style="fill:none;stroke:#a52a2a;stroke-width:7.5;stroke-linecap:butt;stroke-linejoin:miter;stroke-miterlimit:4;stroke-dasharray:none;stroke-opacity:1"
         id="path46" /><path
         d="m 1503.98,132.852 h 127.5"
         style="fill:none;stroke:#a52a2a;stroke-width:22.5;stroke-linecap:butt;stroke-linejoin:miter;stroke-miterlimit:4;stroke-dasharray:none;stroke-opacity:1"
         id="path48" /><path
         d="m 1503.98,132.852 c 0,65.238 -105.78,118.128 -236.25,118.128 -130.46,0 -236.25,-52.89 -236.25,-118.128"
         style="fill:none;stroke:#a52a2a;stroke-width:7.5;stroke-linecap:butt;stroke-linejoin:miter;stroke-miterlimit:4;stroke-dasharray:none;stroke-opacity:1"
         id="path50" /><path
         d="m 903.98,132.852 h 127.5"
         style="fill:none;stroke:#a52a2a;stroke-width:22.5;stroke-linecap:butt;stroke-linejoin:miter;stroke-miterlimit:4;stroke-dasharray:none;stroke-opacity:1"
         id="path52" /><path
         d="m 903.98,132.852 c 0,65.238 -105.781,118.128 -236.25,118.128 -130.46,0 -236.25,-52.89 -236.25,-118.128"
         style="fill:none;stroke:#a52a2a;stroke-width:7.5;stroke-linecap:butt;stroke-linejoin:miter;stroke-miterlimit:4;stroke-dasharray:none;stroke-opacity:1"
         id="path54" /><path
         d="m 1803.98,132.852 h 127.5"
         style="fill:none;stroke:#8a2be2;stroke-width:22.5;stroke-linecap:butt;stroke-linejoin:miter;stroke-miterlimit:4;stroke-dasharray:none;stroke-opacity:1"
         id="path56" /><path
         d="M 1803.98,132.852 C 1794.41,316.289 2083.79,465 2450.35,465 c 366.56,0 671.49,-148.711 681.13,-332.148"
         style="fill:none;stroke:#8a2be2;stroke-width:7.5;stroke-linecap:butt;stroke-linejoin:miter;stroke-miterlimit:4;stroke-dasharray:none;stroke-opacity:1"
         id="path58" /><path
         d="m 3003.98,132.852 h 127.5"
         style="fill:none;stroke:#8a2be2;stroke-width:22.5;stroke-linecap:butt;stroke-linejoin:miter;stroke-miterlimit:4;stroke-dasharray:none;stroke-opacity:1"
         id="path60" /><path
         d="m 3003.98,132.852 c 0,65.238 -105.78,118.128 -236.25,118.128 -130.46,0 -236.25,-52.89 -236.25,-118.128"
         style="fill:none;stroke:#8a2be2;stroke-width:7.5;stroke-linecap:butt;stroke-linejoin:miter;stroke-miterlimit:4;stroke-dasharray:none;stroke-opacity:1"
         id="path62" /><path
         d="m 2403.98,132.852 h 127.5"
         style="fill:none;stroke:#8a2be2;stroke-width:22.5;stroke-linecap:butt;stroke-linejoin:miter;stroke-miterlimit:4;stroke-dasharray:none;stroke-opacity:1"
         id="path64" /><path
         d="m 2403.98,132.852 c 0,65.238 -105.78,118.128 -236.25,118.128 -130.46,0 -236.25,-52.89 -236.25,-118.128"
         style="fill:none;stroke:#8a2be2;stroke-width:7.5;stroke-linecap:butt;stroke-linejoin:miter;stroke-miterlimit:4;stroke-dasharray:none;stroke-opacity:1"
         id="path66" /><path
         d="m 2103.98,132.852 h 127.5"
         style="fill:none;stroke:#deb887;stroke-width:22.5;stroke-linecap:butt;stroke-linejoin:miter;stroke-miterlimit:4;stroke-dasharray:none;stroke-opacity:1"
         id="path68" /><path
         d="M 2103.98,132.852 C 2094.41,316.289 2383.79,465 2750.35,465 c 366.56,0 671.49,-148.711 681.13,-332.148"
         style="fill:none;stroke:#deb887;stroke-width:7.5;stroke-linecap:butt;stroke-linejoin:miter;stroke-miterlimit:4;stroke-dasharray:none;stroke-opacity:1"
         id="path70" /><path
         d="m 3303.98,132.852 h 127.5"
         style="fill:none;stroke:#deb887;stroke-width:22.5;stroke-linecap:butt;stroke-linejoin:miter;stroke-miterlimit:4;stroke-dasharray:none;stroke-opacity:1"
         id="path72" /><path
         d="m 3303.98,132.852 c 0,65.238 -105.78,118.128 -236.25,118.128 -130.46,0 -236.25,-52.89 -236.25,-118.128"
         style="fill:none;stroke:#deb887;stroke-width:7.5;stroke-linecap:butt;stroke-linejoin:miter;stroke-miterlimit:4;stroke-dasharray:none;stroke-opacity:1"
         id="path74" /><path
         d="m 2703.98,132.852 h 127.5"
         style="fill:none;stroke:#deb887;stroke-width:22.5;stroke-linecap:butt;stroke-linejoin:miter;stroke-miterlimit:4;stroke-dasharray:none;stroke-opacity:1"
         id="path76" /><path
         d="m 2703.98,132.852 c 0,65.238 -105.78,118.128 -236.25,118.128 -130.46,0 -236.25,-52.89 -236.25,-118.128"
         style="fill:none;stroke:#deb887;stroke-width:7.5;stroke-linecap:butt;stroke-linejoin:miter;stroke-miterlimit:4;stroke-dasharray:none;stroke-opacity:1"
         id="path78" /><path
         d="m 3603.98,132.852 h 127.5"
         style="fill:none;stroke:#5f9ea0;stroke-width:22.5;stroke-linecap:butt;stroke-linejoin:miter;stroke-miterlimit:4;stroke-dasharray:none;stroke-opacity:1"
         id="path80" /><path
         d="m 3603.98,132.852 c -48.63,929.728 1417.97,1683.398 3275.71,1683.398 1857.73,0 3403.21,-753.67 3451.81,-1683.398"
         style="fill:none;stroke:#5f9ea0;stroke-width:7.5;stroke-linecap:butt;stroke-linejoin:miter;stroke-miterlimit:4;stroke-dasharray:none;stroke-opacity:1"
         id="path82" /><path
         d="m 10204,132.852 h 127.5"
         style="fill:none;stroke:#5f9ea0;stroke-width:22.5;stroke-linecap:butt;stroke-linejoin:miter;stroke-miterlimit:4;stroke-dasharray:none;stroke-opacity:1"
         id="path84" /><path
         d="m 10204,132.852 c 0,65.238 -105.8,118.128 -236.27,118.128 -130.46,0 -236.25,-52.89 -236.25,-118.128"
         style="fill:none;stroke:#5f9ea0;stroke-width:7.5;stroke-linecap:butt;stroke-linejoin:miter;stroke-miterlimit:4;stroke-dasharray:none;stroke-opacity:1"
         id="path86" /><path
         d="m 9603.98,132.852 h 127.5"
         style="fill:none;stroke:#5f9ea0;stroke-width:22.5;stroke-linecap:butt;stroke-linejoin:miter;stroke-miterlimit:4;stroke-dasharray:none;stroke-opacity:1"
         id="path88" /><path
         d="m 9603.98,132.852 c 0,810.82 -1314.6,1468.128 -2936.25,1468.128 -1621.64,0 -2936.25,-657.308 -2936.25,-1468.128"
         style="fill:none;stroke:#5f9ea0;stroke-width:7.5;stroke-linecap:butt;stroke-linejoin:miter;stroke-miterlimit:4;stroke-dasharray:none;stroke-opacity:1"
         id="path90" /><path
         d="m 3903.98,132.852 h 127.5"
         style="fill:none;stroke:#7fff00;stroke-width:22.5;stroke-linecap:butt;stroke-linejoin:miter;stroke-miterlimit:4;stroke-dasharray:none;stroke-opacity:1"
         id="path92" /><path
         d="M 3903.98,132.852 C 3894.41,316.289 4183.79,465 4550.35,465 c 366.56,0 671.49,-148.711 681.13,-332.148"
         style="fill:none;stroke:#7fff00;stroke-width:7.5;stroke-linecap:butt;stroke-linejoin:miter;stroke-miterlimit:4;stroke-dasharray:none;stroke-opacity:1"
         id="path94" /><path
         d="m 5103.98,132.852 h 127.5"
         style="fill:none;stroke:#7fff00;stroke-width:22.5;stroke-linecap:butt;stroke-linejoin:miter;stroke-miterlimit:4;stroke-dasharray:none;stroke-opacity:1"
         id="path96" /><path
         d="m 5103.98,132.852 c 0,65.238 -105.78,118.128 -236.25,118.128 -130.46,0 -236.25,-52.89 -236.25,-118.128"
         style="fill:none;stroke:#7fff00;stroke-width:7.5;stroke-linecap:butt;stroke-linejoin:miter;stroke-miterlimit:4;stroke-dasharray:none;stroke-opacity:1"
         id="path98" /><path
         d="m 4503.98,132.852 h 127.5"
         style="fill:none;stroke:#7fff00;stroke-width:22.5;stroke-linecap:butt;stroke-linejoin:miter;stroke-miterlimit:4;stroke-dasharray:none;stroke-opacity:1"
         id="path100" /><path
         d="m 4503.98,132.852 c 0,65.238 -105.78,118.128 -236.25,118.128 -130.46,0 -236.25,-52.89 -236.25,-118.128"
         style="fill:none;stroke:#7fff00;stroke-width:7.5;stroke-linecap:butt;stroke-linejoin:miter;stroke-miterlimit:4;stroke-dasharray:none;stroke-opacity:1"
         id="path102" /><path
         d="m 4203.98,132.852 h 127.5"
         style="fill:none;stroke:#d2691e;stroke-width:22.5;stroke-linecap:butt;stroke-linejoin:miter;stroke-miterlimit:4;stroke-dasharray:none;stroke-opacity:1"
         id="path104" /><path
         d="M 4203.98,132.852 C 4194.41,316.289 4483.79,465 4850.35,465 c 366.56,0 671.49,-148.711 681.13,-332.148"
         style="fill:none;stroke:#d2691e;stroke-width:7.5;stroke-linecap:butt;stroke-linejoin:miter;stroke-miterlimit:4;stroke-dasharray:none;stroke-opacity:1"
         id="path106" /><path
         d="m 5403.98,132.852 h 127.5"
         style="fill:none;stroke:#d2691e;stroke-width:22.5;stroke-linecap:butt;stroke-linejoin:miter;stroke-miterlimit:4;stroke-dasharray:none;stroke-opacity:1"
         id="path108" /><path
         d="m 5403.98,132.852 c 0,65.238 -105.78,118.128 -236.25,118.128 -130.46,0 -236.25,-52.89 -236.25,-118.128"
         style="fill:none;stroke:#d2691e;stroke-width:7.5;stroke-linecap:butt;stroke-linejoin:miter;stroke-miterlimit:4;stroke-dasharray:none;stroke-opacity:1"
         id="path110" /><path
         d="m 4803.98,132.852 h 127.5"
         style="fill:none;stroke:#d2691e;stroke-width:22.5;stroke-linecap:butt;stroke-linejoin:miter;stroke-miterlimit:4;stroke-dasharray:none;stroke-opacity:1"
         id="path112" /><path
         d="m 4803.98,132.852 c 0,65.238 -105.78,118.128 -236.25,118.128 -130.46,0 -236.25,-52.89 -236.25,-118.128"
         style="fill:none;stroke:#d2691e;stroke-width:7.5;stroke-linecap:butt;stroke-linejoin:miter;stroke-miterlimit:4;stroke-dasharray:none;stroke-opacity:1"
         id="path114" /><path
         d="m 6003.98,132.852 h 127.5"
         style="fill:none;stroke:#ff7f50;stroke-width:22.5;stroke-linecap:butt;stroke-linejoin:miter;stroke-miterlimit:4;stroke-dasharray:none;stroke-opacity:1"
         id="path116" /><path
         d="M 6003.98,132.852 C 5994.41,316.289 6283.79,465 6650.35,465 c 366.56,0 671.49,-148.711 681.13,-332.148"
         style="fill:none;stroke:#ff7f50;stroke-width:7.5;stroke-linecap:butt;stroke-linejoin:miter;stroke-miterlimit:4;stroke-dasharray:none;stroke-opacity:1"
         id="path118" /><path
         d="m 7203.98,132.852 h 127.5"
         style="fill:none;stroke:#ff7f50;stroke-width:22.5;stroke-linecap:butt;stroke-linejoin:miter;stroke-miterlimit:4;stroke-dasharray:none;stroke-opacity:1"
         id="path120" /><path
         d="m 7203.98,132.852 c 0,65.238 -105.78,118.128 -236.25,118.128 -130.46,0 -236.25,-52.89 -236.25,-118.128"
         style="fill:none;stroke:#ff7f50;stroke-width:7.5;stroke-linecap:butt;stroke-linejoin:miter;stroke-miterlimit:4;stroke-dasharray:none;stroke-opacity:1"
         id="path122" /><path
         d="m 6603.98,132.852 h 127.5"
         style="fill:none;stroke:#ff7f50;stroke-width:22.5;stroke-linecap:butt;stroke-linejoin:miter;stroke-miterlimit:4;stroke-dasharray:none;stroke-opacity:1"
         id="path124" /><path
         d="m 6603.98,132.852 c 0,65.238 -105.78,118.128 -236.25,118.128 -130.46,0 -236.25,-52.89 -236.25,-118.128"
         style="fill:none;stroke:#ff7f50;stroke-width:7.5;stroke-linecap:butt;stroke-linejoin:miter;stroke-miterlimit:4;stroke-dasharray:none;stroke-opacity:1"
         id="path126" /><path
         d="m 6303.98,132.852 h 127.5"
         style="fill:none;stroke:#6495ed;stroke-width:22.5;stroke-linecap:butt;stroke-linejoin:miter;stroke-miterlimit:4;stroke-dasharray:none;stroke-opacity:1"
         id="path128" /><path
         d="M 6303.98,132.852 C 6294.38,316.289 6583.79,465 6950.35,465 c 366.6,0 671.53,-148.711 681.13,-332.148"
         style="fill:none;stroke:#6495ed;stroke-width:7.5;stroke-linecap:butt;stroke-linejoin:miter;stroke-miterlimit:4;stroke-dasharray:none;stroke-opacity:1"
         id="path130" /><path
         d="m 7503.98,132.852 h 127.5"
         style="fill:none;stroke:#6495ed;stroke-width:22.5;stroke-linecap:butt;stroke-linejoin:miter;stroke-miterlimit:4;stroke-dasharray:none;stroke-opacity:1"
         id="path132" /><path
         d="m 7503.98,132.852 c 0,65.238 -105.78,118.128 -236.25,118.128 -130.46,0 -236.25,-52.89 -236.25,-118.128"
         style="fill:none;stroke:#6495ed;stroke-width:7.5;stroke-linecap:butt;stroke-linejoin:miter;stroke-miterlimit:4;stroke-dasharray:none;stroke-opacity:1"
         id="path134" /><path
         d="m 6903.98,132.852 h 127.5"
         style="fill:none;stroke:#6495ed;stroke-width:22.5;stroke-linecap:butt;stroke-linejoin:miter;stroke-miterlimit:4;stroke-dasharray:none;stroke-opacity:1"
         id="path136" /><path
         d="m 6903.98,132.852 c 0,65.238 -105.78,118.128 -236.25,118.128 -130.46,0 -236.25,-52.89 -236.25,-118.128"
         style="fill:none;stroke:#6495ed;stroke-width:7.5;stroke-linecap:butt;stroke-linejoin:miter;stroke-miterlimit:4;stroke-dasharray:none;stroke-opacity:1"
         id="path138" /><path
         d="m 7803.98,132.852 h 127.5"
         style="fill:none;stroke:#dc143c;stroke-width:22.5;stroke-linecap:butt;stroke-linejoin:miter;stroke-miterlimit:4;stroke-dasharray:none;stroke-opacity:1"
         id="path140" /><path
         d="M 7803.98,132.852 C 7794.41,316.289 8083.79,465 8450.35,465 c 366.56,0 671.49,-148.711 681.13,-332.148"
         style="fill:none;stroke:#dc143c;stroke-width:7.5;stroke-linecap:butt;stroke-linejoin:miter;stroke-miterlimit:4;stroke-dasharray:none;stroke-opacity:1"
         id="path142" /><path
         d="m 9003.98,132.852 h 127.5"
         style="fill:none;stroke:#dc143c;stroke-width:22.5;stroke-linecap:butt;stroke-linejoin:miter;stroke-miterlimit:4;stroke-dasharray:none;stroke-opacity:1"
         id="path144" /><path
         d="m 9003.98,132.852 c 0,65.238 -105.78,118.128 -236.25,118.128 -130.46,0 -236.25,-52.89 -236.25,-118.128"
         style="fill:none;stroke:#dc143c;stroke-width:7.5;stroke-linecap:butt;stroke-linejoin:miter;stroke-miterlimit:4;stroke-dasharray:none;stroke-opacity:1"
         id="path146" /><path
         d="m 8403.98,132.852 h 127.5"
         style="fill:none;stroke:#dc143c;stroke-width:22.5;stroke-linecap:butt;stroke-linejoin:miter;stroke-miterlimit:4;stroke-dasharray:none;stroke-opacity:1"
         id="path148" /><path
         d="m 8403.98,132.852 c 0,65.238 -105.78,118.128 -236.25,118.128 -130.46,0 -236.25,-52.89 -236.25,-118.128"
         style="fill:none;stroke:#dc143c;stroke-width:7.5;stroke-linecap:butt;stroke-linejoin:miter;stroke-miterlimit:4;stroke-dasharray:none;stroke-opacity:1"
         id="path150" /><path
         d="m 8103.98,132.852 h 127.5"
         style="fill:none;stroke:#00ffff;stroke-width:22.5;stroke-linecap:butt;stroke-linejoin:miter;stroke-miterlimit:4;stroke-dasharray:none;stroke-opacity:1"
         id="path152" /><path
         d="M 8103.98,132.852 C 8094.41,316.289 8383.79,465 8750.35,465 c 366.56,0 671.49,-148.711 681.13,-332.148"
         style="fill:none;stroke:#00ffff;stroke-width:7.5;stroke-linecap:butt;stroke-linejoin:miter;stroke-miterlimit:4;stroke-dasharray:none;stroke-opacity:1"
         id="path154" /><path
         d="m 9303.98,132.852 h 127.5"
         style="fill:none;stroke:#00ffff;stroke-width:22.5;stroke-linecap:butt;stroke-linejoin:miter;stroke-miterlimit:4;stroke-dasharray:none;stroke-opacity:1"
         id="path156" /><path
         d="m 9303.98,132.852 c 0,65.238 -105.78,118.128 -236.25,118.128 -130.46,0 -236.25,-52.89 -236.25,-118.128"
         style="fill:none;stroke:#00ffff;stroke-width:7.5;stroke-linecap:butt;stroke-linejoin:miter;stroke-miterlimit:4;stroke-dasharray:none;stroke-opacity:1"
         id="path158" /><path
         d="m 8703.98,132.852 h 127.5"
         style="fill:none;stroke:#00ffff;stroke-width:22.5;stroke-linecap:butt;stroke-linejoin:miter;stroke-miterlimit:4;stroke-dasharray:none;stroke-opacity:1"
         id="path160" /><path
         d="m 8703.98,132.852 c 0,65.238 -105.78,118.128 -236.25,118.128 -130.46,0 -236.25,-52.89 -236.25,-118.128"
         style="fill:none;stroke:#00ffff;stroke-width:7.5;stroke-linecap:butt;stroke-linejoin:miter;stroke-miterlimit:4;stroke-dasharray:none;stroke-opacity:1"
         id="path162" /></g></g></svg>
