<?xml version="1.0" encoding="UTF-8" standalone="no"?>
<svg
   xmlns:dc="http://purl.org/dc/elements/1.1/"
   xmlns:cc="http://creativecommons.org/ns#"
   xmlns:rdf="http://www.w3.org/1999/02/22-rdf-syntax-ns#"
   xmlns:svg="http://www.w3.org/2000/svg"
   xmlns="http://www.w3.org/2000/svg"
   xmlns:sodipodi="http://sodipodi.sourceforge.net/DTD/sodipodi-0.dtd"
   xmlns:inkscape="http://www.inkscape.org/namespaces/inkscape"
   version="1.1"
   id="svg2"
   xml:space="preserve"
   width="1418.6667"
   height="182.66667"
   viewBox="0 0 1418.6667 182.66667"
   sodipodi:docname="problematic-8.eps"><metadata
     id="metadata8"><rdf:RDF><cc:Work
         rdf:about=""><dc:format>image/svg+xml</dc:format><dc:type
           rdf:resource="http://purl.org/dc/dcmitype/StillImage" /></cc:Work></rdf:RDF></metadata><defs
     id="defs6" /><sodipodi:namedview
     pagecolor="#ffffff"
     bordercolor="#666666"
     borderopacity="1"
     objecttolerance="10"
     gridtolerance="10"
     guidetolerance="10"
     inkscape:pageopacity="0"
     inkscape:pageshadow="2"
     inkscape:window-width="640"
     inkscape:window-height="480"
     id="namedview4" /><g
     id="g10"
     inkscape:groupmode="layer"
     inkscape:label="ink_ext_XXXXXX"
     transform="matrix(1.3333333,0,0,-1.3333333,0,182.66667)"><g
       id="g12"
       transform="scale(0.1)"><g
         id="g14"
         transform="scale(10)"><text
           transform="matrix(1,0,0,-1,0.460938,0.575)"
           style="font-variant:normal;font-weight:normal;font-size:9px;font-family:SegoeUI;-inkscape-font-specification:SegoeUI;writing-mode:lr-tb;fill:#000000;fill-opacity:1;fill-rule:nonzero;stroke:none"
           id="text18"><tspan
             x="0 29.997089 60.003181 90.000267 119.99772 149.99481 180.0009 209.99799 239.99544 269.99252 299.99863 304.84961 329.99554 334.84653 359.99207 364.84308 389.98898 394.84 419.9859 424.83691 449.99182 454.8428 479.98871 484.83972 509.98645 514.83746 539.98334 544.83435 569.98029 574.83124 599.98615 604.83716 629.98309 634.83411 659.98114 664.83215 689.97809 694.82904 719.97498 724.82599 749.9809 754.83191 779.97778 784.8288 809.9751 814.82605 839.97198 844.823 869.96887 874.81989 899.97479 904.82581 929.97168 934.82269 959.96942 964.82043 989.96637 994.81732 1019.9633 1024.8142 1049.9691 1054.8202"
             y="0"
             sodipodi:role="line"
             id="tspan16">01234567891011121314151617181920212223242526272829303132333435</tspan></text></g><path
         d="m 304.609,133.238 h 127.5"
         style="fill:none;stroke:#0000ff;stroke-width:22.5;stroke-linecap:butt;stroke-linejoin:miter;stroke-miterlimit:4;stroke-dasharray:none;stroke-opacity:1"
         id="path20" /><path
         d="M 304.609,133.238 C 269.141,814.18 1343.28,1366.13 2703.87,1366.13 c 1360.58,0 2492.5,-551.95 2528.24,-1232.892"
         style="fill:none;stroke:#0000ff;stroke-width:7.5;stroke-linecap:butt;stroke-linejoin:miter;stroke-miterlimit:4;stroke-dasharray:none;stroke-opacity:1"
         id="path22" /><path
         d="m 5104.61,133.238 h 127.5"
         style="fill:none;stroke:#0000ff;stroke-width:22.5;stroke-linecap:butt;stroke-linejoin:miter;stroke-miterlimit:4;stroke-dasharray:none;stroke-opacity:1"
         id="path24" /><path
         d="m 5104.61,133.238 c 0,65.242 -105.78,118.133 -236.25,118.133 -130.47,0 -236.25,-52.891 -236.25,-118.133"
         style="fill:none;stroke:#0000ff;stroke-width:7.5;stroke-linecap:butt;stroke-linejoin:miter;stroke-miterlimit:4;stroke-dasharray:none;stroke-opacity:1"
         id="path26" /><path
         d="m 4504.61,133.238 h 127.5"
         style="fill:none;stroke:#0000ff;stroke-width:22.5;stroke-linecap:butt;stroke-linejoin:miter;stroke-miterlimit:4;stroke-dasharray:none;stroke-opacity:1"
         id="path28" /><path
         d="M 4504.61,133.238 C 4504.45,695.512 3592.85,1151.25 2468.36,1151.25 1343.87,1151.25 432.27,695.512 432.109,133.238"
         style="fill:none;stroke:#0000ff;stroke-width:7.5;stroke-linecap:butt;stroke-linejoin:miter;stroke-miterlimit:4;stroke-dasharray:none;stroke-opacity:1"
         id="path30" /><path
         d="m 604.609,133.238 h 127.5"
         style="fill:none;stroke:#ff6347;stroke-width:22.5;stroke-linecap:butt;stroke-linejoin:miter;stroke-miterlimit:4;stroke-dasharray:none;stroke-opacity:1"
         id="path32" /><path
         d="m 604.609,133.238 c -9.488,183.442 279.879,332.114 646.371,332.114 366.52,0 671.44,-148.672 681.13,-332.114"
         style="fill:none;stroke:#ff6347;stroke-width:7.5;stroke-linecap:butt;stroke-linejoin:miter;stroke-miterlimit:4;stroke-dasharray:none;stroke-opacity:1"
         id="path34" /><path
         d="m 1804.61,133.238 h 127.5"
         style="fill:none;stroke:#ff6347;stroke-width:22.5;stroke-linecap:butt;stroke-linejoin:miter;stroke-miterlimit:4;stroke-dasharray:none;stroke-opacity:1"
         id="path36" /><path
         d="m 1804.61,133.238 c 0,65.242 -105.78,118.133 -236.25,118.133 -130.47,0 -236.25,-52.891 -236.25,-118.133"
         style="fill:none;stroke:#ff6347;stroke-width:7.5;stroke-linecap:butt;stroke-linejoin:miter;stroke-miterlimit:4;stroke-dasharray:none;stroke-opacity:1"
         id="path38" /><path
         d="m 1204.61,133.238 h 127.5"
         style="fill:none;stroke:#ff6347;stroke-width:22.5;stroke-linecap:butt;stroke-linejoin:miter;stroke-miterlimit:4;stroke-dasharray:none;stroke-opacity:1"
         id="path40" /><path
         d="m 1204.61,133.238 c -0.04,65.242 -105.82,118.094 -236.251,118.094 -130.429,0 -236.211,-52.852 -236.25,-118.094"
         style="fill:none;stroke:#ff6347;stroke-width:7.5;stroke-linecap:butt;stroke-linejoin:miter;stroke-miterlimit:4;stroke-dasharray:none;stroke-opacity:1"
         id="path42" /><path
         d="M 904.609,133.238 H 1032.11"
         style="fill:none;stroke:#a52a2a;stroke-width:22.5;stroke-linecap:butt;stroke-linejoin:miter;stroke-miterlimit:4;stroke-dasharray:none;stroke-opacity:1"
         id="path44" /><path
         d="m 904.609,133.238 c -9.57,183.442 279.841,332.153 646.371,332.153 366.56,0 671.52,-148.711 681.13,-332.153"
         style="fill:none;stroke:#a52a2a;stroke-width:7.5;stroke-linecap:butt;stroke-linejoin:miter;stroke-miterlimit:4;stroke-dasharray:none;stroke-opacity:1"
         id="path46" /><path
         d="m 2104.61,133.238 h 127.5"
         style="fill:none;stroke:#a52a2a;stroke-width:22.5;stroke-linecap:butt;stroke-linejoin:miter;stroke-miterlimit:4;stroke-dasharray:none;stroke-opacity:1"
         id="path48" /><path
         d="m 2104.61,133.238 c 0,65.242 -105.78,118.133 -236.25,118.133 -130.47,0 -236.25,-52.891 -236.25,-118.133"
         style="fill:none;stroke:#a52a2a;stroke-width:7.5;stroke-linecap:butt;stroke-linejoin:miter;stroke-miterlimit:4;stroke-dasharray:none;stroke-opacity:1"
         id="path50" /><path
         d="m 1504.61,133.238 h 127.5"
         style="fill:none;stroke:#a52a2a;stroke-width:22.5;stroke-linecap:butt;stroke-linejoin:miter;stroke-miterlimit:4;stroke-dasharray:none;stroke-opacity:1"
         id="path52" /><path
         d="m 1504.61,133.238 c 0,65.242 -105.78,118.133 -236.25,118.133 -130.47,0 -236.25,-52.891 -236.25,-118.133"
         style="fill:none;stroke:#a52a2a;stroke-width:7.5;stroke-linecap:butt;stroke-linejoin:miter;stroke-miterlimit:4;stroke-dasharray:none;stroke-opacity:1"
         id="path54" /><path
         d="m 2404.61,133.238 h 127.5"
         style="fill:none;stroke:#8a2be2;stroke-width:22.5;stroke-linecap:butt;stroke-linejoin:miter;stroke-miterlimit:4;stroke-dasharray:none;stroke-opacity:1"
         id="path56" /><path
         d="m 2404.61,133.238 c -9.57,183.442 279.84,332.153 646.37,332.153 366.56,0 671.52,-148.711 681.13,-332.153"
         style="fill:none;stroke:#8a2be2;stroke-width:7.5;stroke-linecap:butt;stroke-linejoin:miter;stroke-miterlimit:4;stroke-dasharray:none;stroke-opacity:1"
         id="path58" /><path
         d="m 3604.61,133.238 h 127.5"
         style="fill:none;stroke:#8a2be2;stroke-width:22.5;stroke-linecap:butt;stroke-linejoin:miter;stroke-miterlimit:4;stroke-dasharray:none;stroke-opacity:1"
         id="path60" /><path
         d="m 3604.61,133.238 c 0,65.242 -105.78,118.133 -236.25,118.133 -130.47,0 -236.25,-52.891 -236.25,-118.133"
         style="fill:none;stroke:#8a2be2;stroke-width:7.5;stroke-linecap:butt;stroke-linejoin:miter;stroke-miterlimit:4;stroke-dasharray:none;stroke-opacity:1"
         id="path62" /><path
         d="m 3004.61,133.238 h 127.5"
         style="fill:none;stroke:#8a2be2;stroke-width:22.5;stroke-linecap:butt;stroke-linejoin:miter;stroke-miterlimit:4;stroke-dasharray:none;stroke-opacity:1"
         id="path64" /><path
         d="m 3004.61,133.238 c 0,65.242 -105.78,118.133 -236.25,118.133 -130.47,0 -236.25,-52.891 -236.25,-118.133"
         style="fill:none;stroke:#8a2be2;stroke-width:7.5;stroke-linecap:butt;stroke-linejoin:miter;stroke-miterlimit:4;stroke-dasharray:none;stroke-opacity:1"
         id="path66" /><path
         d="m 2704.61,133.238 h 127.5"
         style="fill:none;stroke:#deb887;stroke-width:22.5;stroke-linecap:butt;stroke-linejoin:miter;stroke-miterlimit:4;stroke-dasharray:none;stroke-opacity:1"
         id="path68" /><path
         d="m 2704.61,133.238 c -9.57,183.442 279.84,332.153 646.37,332.153 366.56,0 671.52,-148.711 681.13,-332.153"
         style="fill:none;stroke:#deb887;stroke-width:7.5;stroke-linecap:butt;stroke-linejoin:miter;stroke-miterlimit:4;stroke-dasharray:none;stroke-opacity:1"
         id="path70" /><path
         d="m 3904.61,133.238 h 127.5"
         style="fill:none;stroke:#deb887;stroke-width:22.5;stroke-linecap:butt;stroke-linejoin:miter;stroke-miterlimit:4;stroke-dasharray:none;stroke-opacity:1"
         id="path72" /><path
         d="m 3904.61,133.238 c 0,65.242 -105.78,118.133 -236.25,118.133 -130.47,0 -236.25,-52.891 -236.25,-118.133"
         style="fill:none;stroke:#deb887;stroke-width:7.5;stroke-linecap:butt;stroke-linejoin:miter;stroke-miterlimit:4;stroke-dasharray:none;stroke-opacity:1"
         id="path74" /><path
         d="m 3304.61,133.238 h 127.5"
         style="fill:none;stroke:#deb887;stroke-width:22.5;stroke-linecap:butt;stroke-linejoin:miter;stroke-miterlimit:4;stroke-dasharray:none;stroke-opacity:1"
         id="path76" /><path
         d="m 3304.61,133.238 c 0,65.242 -105.78,118.133 -236.25,118.133 -130.47,0 -236.25,-52.891 -236.25,-118.133"
         style="fill:none;stroke:#deb887;stroke-width:7.5;stroke-linecap:butt;stroke-linejoin:miter;stroke-miterlimit:4;stroke-dasharray:none;stroke-opacity:1"
         id="path78" /><path
         d="m 4204.61,133.238 h 127.5"
         style="fill:none;stroke:#5f9ea0;stroke-width:22.5;stroke-linecap:butt;stroke-linejoin:miter;stroke-miterlimit:4;stroke-dasharray:none;stroke-opacity:1"
         id="path80" /><path
         d="M 4204.61,133.238 C 4204.45,695.512 3292.85,1151.25 2168.36,1151.25 1043.87,1151.25 132.27,695.512 132.109,133.238"
         style="fill:none;stroke:#5f9ea0;stroke-width:7.5;stroke-linecap:butt;stroke-linejoin:miter;stroke-miterlimit:4;stroke-dasharray:none;stroke-opacity:1"
         id="path82" /><path
         d="M 4.60938,133.238 H 132.109"
         style="fill:none;stroke:#5f9ea0;stroke-width:22.5;stroke-linecap:butt;stroke-linejoin:miter;stroke-miterlimit:4;stroke-dasharray:none;stroke-opacity:1"
         id="path84" /><path
         d="M 4.60938,133.238 C -30.8594,814.18 1043.28,1366.13 2403.87,1366.13 c 1360.62,0 2492.5,-551.95 2528.24,-1232.892"
         style="fill:none;stroke:#5f9ea0;stroke-width:7.5;stroke-linecap:butt;stroke-linejoin:miter;stroke-miterlimit:4;stroke-dasharray:none;stroke-opacity:1"
         id="path86" /><path
         d="m 4804.61,133.238 h 127.5"
         style="fill:none;stroke:#5f9ea0;stroke-width:22.5;stroke-linecap:butt;stroke-linejoin:miter;stroke-miterlimit:4;stroke-dasharray:none;stroke-opacity:1"
         id="path88" /><path
         d="m 4804.61,133.238 c 0,65.242 -105.78,118.133 -236.25,118.133 -130.47,0 -236.25,-52.891 -236.25,-118.133"
         style="fill:none;stroke:#5f9ea0;stroke-width:7.5;stroke-linecap:butt;stroke-linejoin:miter;stroke-miterlimit:4;stroke-dasharray:none;stroke-opacity:1"
         id="path90" /><path
         d="m 5404.61,133.238 h 127.5"
         style="fill:none;stroke:#7fff00;stroke-width:22.5;stroke-linecap:butt;stroke-linejoin:miter;stroke-miterlimit:4;stroke-dasharray:none;stroke-opacity:1"
         id="path92" /><path
         d="m 5404.61,133.238 c -9.57,183.442 279.84,332.153 646.37,332.153 366.56,0 671.52,-148.711 681.13,-332.153"
         style="fill:none;stroke:#7fff00;stroke-width:7.5;stroke-linecap:butt;stroke-linejoin:miter;stroke-miterlimit:4;stroke-dasharray:none;stroke-opacity:1"
         id="path94" /><path
         d="m 6604.61,133.238 h 127.5"
         style="fill:none;stroke:#7fff00;stroke-width:22.5;stroke-linecap:butt;stroke-linejoin:miter;stroke-miterlimit:4;stroke-dasharray:none;stroke-opacity:1"
         id="path96" /><path
         d="m 6604.61,133.238 c 0,65.242 -105.78,118.133 -236.25,118.133 -130.47,0 -236.25,-52.891 -236.25,-118.133"
         style="fill:none;stroke:#7fff00;stroke-width:7.5;stroke-linecap:butt;stroke-linejoin:miter;stroke-miterlimit:4;stroke-dasharray:none;stroke-opacity:1"
         id="path98" /><path
         d="m 6004.61,133.238 h 127.5"
         style="fill:none;stroke:#7fff00;stroke-width:22.5;stroke-linecap:butt;stroke-linejoin:miter;stroke-miterlimit:4;stroke-dasharray:none;stroke-opacity:1"
         id="path100" /><path
         d="m 6004.61,133.238 c 0,65.242 -105.78,118.133 -236.25,118.133 -130.47,0 -236.25,-52.891 -236.25,-118.133"
         style="fill:none;stroke:#7fff00;stroke-width:7.5;stroke-linecap:butt;stroke-linejoin:miter;stroke-miterlimit:4;stroke-dasharray:none;stroke-opacity:1"
         id="path102" /><path
         d="m 5704.61,133.238 h 127.5"
         style="fill:none;stroke:#d2691e;stroke-width:22.5;stroke-linecap:butt;stroke-linejoin:miter;stroke-miterlimit:4;stroke-dasharray:none;stroke-opacity:1"
         id="path104" /><path
         d="m 5704.61,133.238 c -9.57,183.442 279.84,332.153 646.37,332.153 366.56,0 671.52,-148.711 681.13,-332.153"
         style="fill:none;stroke:#d2691e;stroke-width:7.5;stroke-linecap:butt;stroke-linejoin:miter;stroke-miterlimit:4;stroke-dasharray:none;stroke-opacity:1"
         id="path106" /><path
         d="m 6904.61,133.238 h 127.5"
         style="fill:none;stroke:#d2691e;stroke-width:22.5;stroke-linecap:butt;stroke-linejoin:miter;stroke-miterlimit:4;stroke-dasharray:none;stroke-opacity:1"
         id="path108" /><path
         d="m 6904.61,133.238 c 0,65.242 -105.78,118.133 -236.25,118.133 -130.47,0 -236.25,-52.891 -236.25,-118.133"
         style="fill:none;stroke:#d2691e;stroke-width:7.5;stroke-linecap:butt;stroke-linejoin:miter;stroke-miterlimit:4;stroke-dasharray:none;stroke-opacity:1"
         id="path110" /><path
         d="m 6304.61,133.238 h 127.5"
         style="fill:none;stroke:#d2691e;stroke-width:22.5;stroke-linecap:butt;stroke-linejoin:miter;stroke-miterlimit:4;stroke-dasharray:none;stroke-opacity:1"
         id="path112" /><path
         d="m 6304.61,133.238 c 0,65.242 -105.78,118.133 -236.25,118.133 -130.47,0 -236.25,-52.891 -236.25,-118.133"
         style="fill:none;stroke:#d2691e;stroke-width:7.5;stroke-linecap:butt;stroke-linejoin:miter;stroke-miterlimit:4;stroke-dasharray:none;stroke-opacity:1"
         id="path114" /><path
         d="m 7204.61,133.238 h 127.5"
         style="fill:none;stroke:#ff7f50;stroke-width:22.5;stroke-linecap:butt;stroke-linejoin:miter;stroke-miterlimit:4;stroke-dasharray:none;stroke-opacity:1"
         id="path116" /><path
         d="m 7204.61,133.238 c -9.57,183.442 279.84,332.153 646.37,332.153 366.56,0 671.52,-148.711 681.13,-332.153"
         style="fill:none;stroke:#ff7f50;stroke-width:7.5;stroke-linecap:butt;stroke-linejoin:miter;stroke-miterlimit:4;stroke-dasharray:none;stroke-opacity:1"
         id="path118" /><path
         d="m 8404.61,133.238 h 127.5"
         style="fill:none;stroke:#ff7f50;stroke-width:22.5;stroke-linecap:butt;stroke-linejoin:miter;stroke-miterlimit:4;stroke-dasharray:none;stroke-opacity:1"
         id="path120" /><path
         d="m 8404.61,133.238 c 0,65.242 -105.78,118.133 -236.25,118.133 -130.47,0 -236.25,-52.891 -236.25,-118.133"
         style="fill:none;stroke:#ff7f50;stroke-width:7.5;stroke-linecap:butt;stroke-linejoin:miter;stroke-miterlimit:4;stroke-dasharray:none;stroke-opacity:1"
         id="path122" /><path
         d="m 7804.61,133.238 h 127.5"
         style="fill:none;stroke:#ff7f50;stroke-width:22.5;stroke-linecap:butt;stroke-linejoin:miter;stroke-miterlimit:4;stroke-dasharray:none;stroke-opacity:1"
         id="path124" /><path
         d="m 7804.61,133.238 c 0,65.242 -105.78,118.133 -236.25,118.133 -130.47,0 -236.25,-52.891 -236.25,-118.133"
         style="fill:none;stroke:#ff7f50;stroke-width:7.5;stroke-linecap:butt;stroke-linejoin:miter;stroke-miterlimit:4;stroke-dasharray:none;stroke-opacity:1"
         id="path126" /><path
         d="m 7504.61,133.238 h 127.5"
         style="fill:none;stroke:#6495ed;stroke-width:22.5;stroke-linecap:butt;stroke-linejoin:miter;stroke-miterlimit:4;stroke-dasharray:none;stroke-opacity:1"
         id="path128" /><path
         d="m 7504.61,133.238 c -9.57,183.442 279.84,332.153 646.37,332.153 366.56,0 671.52,-148.711 681.13,-332.153"
         style="fill:none;stroke:#6495ed;stroke-width:7.5;stroke-linecap:butt;stroke-linejoin:miter;stroke-miterlimit:4;stroke-dasharray:none;stroke-opacity:1"
         id="path130" /><path
         d="m 8704.61,133.238 h 127.5"
         style="fill:none;stroke:#6495ed;stroke-width:22.5;stroke-linecap:butt;stroke-linejoin:miter;stroke-miterlimit:4;stroke-dasharray:none;stroke-opacity:1"
         id="path132" /><path
         d="m 8704.61,133.238 c 0,65.242 -105.78,118.133 -236.25,118.133 -130.47,0 -236.25,-52.891 -236.25,-118.133"
         style="fill:none;stroke:#6495ed;stroke-width:7.5;stroke-linecap:butt;stroke-linejoin:miter;stroke-miterlimit:4;stroke-dasharray:none;stroke-opacity:1"
         id="path134" /><path
         d="m 8104.61,133.238 h 127.5"
         style="fill:none;stroke:#6495ed;stroke-width:22.5;stroke-linecap:butt;stroke-linejoin:miter;stroke-miterlimit:4;stroke-dasharray:none;stroke-opacity:1"
         id="path136" /><path
         d="m 8104.61,133.238 c 0,65.242 -105.78,118.133 -236.25,118.133 -130.47,0 -236.25,-52.891 -236.25,-118.133"
         style="fill:none;stroke:#6495ed;stroke-width:7.5;stroke-linecap:butt;stroke-linejoin:miter;stroke-miterlimit:4;stroke-dasharray:none;stroke-opacity:1"
         id="path138" /><path
         d="m 9004.61,133.238 h 127.5"
         style="fill:none;stroke:#dc143c;stroke-width:22.5;stroke-linecap:butt;stroke-linejoin:miter;stroke-miterlimit:4;stroke-dasharray:none;stroke-opacity:1"
         id="path140" /><path
         d="m 9004.61,133.238 c -9.57,183.442 279.84,332.153 646.37,332.153 366.52,0 671.52,-148.711 681.12,-332.153"
         style="fill:none;stroke:#dc143c;stroke-width:7.5;stroke-linecap:butt;stroke-linejoin:miter;stroke-miterlimit:4;stroke-dasharray:none;stroke-opacity:1"
         id="path142" /><path
         d="m 10204.6,133.238 h 127.5"
         style="fill:none;stroke:#dc143c;stroke-width:22.5;stroke-linecap:butt;stroke-linejoin:miter;stroke-miterlimit:4;stroke-dasharray:none;stroke-opacity:1"
         id="path144" /><path
         d="m 10204.6,133.238 c 0,65.242 -105.8,118.133 -236.24,118.133 -130.47,0 -236.25,-52.891 -236.25,-118.133"
         style="fill:none;stroke:#dc143c;stroke-width:7.5;stroke-linecap:butt;stroke-linejoin:miter;stroke-miterlimit:4;stroke-dasharray:none;stroke-opacity:1"
         id="path146" /><path
         d="m 9604.61,133.238 h 127.5"
         style="fill:none;stroke:#dc143c;stroke-width:22.5;stroke-linecap:butt;stroke-linejoin:miter;stroke-miterlimit:4;stroke-dasharray:none;stroke-opacity:1"
         id="path148" /><path
         d="m 9604.61,133.238 c 0,65.242 -105.78,118.133 -236.25,118.133 -130.47,0 -236.25,-52.891 -236.25,-118.133"
         style="fill:none;stroke:#dc143c;stroke-width:7.5;stroke-linecap:butt;stroke-linejoin:miter;stroke-miterlimit:4;stroke-dasharray:none;stroke-opacity:1"
         id="path150" /><path
         d="m 9304.61,133.238 h 127.5"
         style="fill:none;stroke:#00ffff;stroke-width:22.5;stroke-linecap:butt;stroke-linejoin:miter;stroke-miterlimit:4;stroke-dasharray:none;stroke-opacity:1"
         id="path152" /><path
         d="m 9304.61,133.238 c -9.57,183.442 279.84,332.153 646.37,332.153 366.52,0 671.52,-148.711 681.12,-332.153"
         style="fill:none;stroke:#00ffff;stroke-width:7.5;stroke-linecap:butt;stroke-linejoin:miter;stroke-miterlimit:4;stroke-dasharray:none;stroke-opacity:1"
         id="path154" /><path
         d="m 10504.6,133.238 h 127.5"
         style="fill:none;stroke:#00ffff;stroke-width:22.5;stroke-linecap:butt;stroke-linejoin:miter;stroke-miterlimit:4;stroke-dasharray:none;stroke-opacity:1"
         id="path156" /><path
         d="m 10504.6,133.238 c 0,65.242 -105.8,118.133 -236.2,118.133 -130.5,0 -236.3,-52.891 -236.3,-118.133"
         style="fill:none;stroke:#00ffff;stroke-width:7.5;stroke-linecap:butt;stroke-linejoin:miter;stroke-miterlimit:4;stroke-dasharray:none;stroke-opacity:1"
         id="path158" /><path
         d="m 9904.61,133.238 h 127.49"
         style="fill:none;stroke:#00ffff;stroke-width:22.5;stroke-linecap:butt;stroke-linejoin:miter;stroke-miterlimit:4;stroke-dasharray:none;stroke-opacity:1"
         id="path160" /><path
         d="m 9904.61,133.238 c 0,65.242 -105.78,118.133 -236.25,118.133 -130.47,0 -236.25,-52.891 -236.25,-118.133"
         style="fill:none;stroke:#00ffff;stroke-width:7.5;stroke-linecap:butt;stroke-linejoin:miter;stroke-miterlimit:4;stroke-dasharray:none;stroke-opacity:1"
         id="path162" /></g></g></svg>
